PathFileType	4	(x/y/z)	S08_PSF_T13
DataRate	CameraRate	NumFrames	NumMarkers	Units	OrigDataRate	OrigDataStartFrame	OrigNumFrames
240	240	9	51	mm	240	212	422
Frame#	Time	Sternum			R.Acromium			L.Acromium			Top.Head			R.ASIS			L.ASIS			R.PSIS			L.PSIS			R.Great.Tro			L.Great.Tro			R.Iliac.Crest			L.Iliac.Crest			V.Sacral			R.Thigh.Upper.Post			R.Thigh.Lower.Ant			R.Thigh.Lower.Post			R.Thigh.Upper.Ant			R.Knee.Lat			R.Knee.Med			R.Shank.Upper.Post			R.Shank.Lower.Ant			R.Shank.Lower.Post			R.Shank.Upper.Ant			R.Ankle.Lat			R.Ankle.Med			R.Heel.Upper			R.Heel.Med			R.Heel.Lat			R.Toe.Lat			R.Toe.Med			R.Toe.Tip			L.Thigh.Upper.Post			L.Thigh.Lower.Ant			L.Thigh.Lower.Post			L.Thigh.Upper.Ant			L.Knee.Lat			L.Knee.Med			L.Shank.Upper.Post			L.Shank.Lower.Ant			L.Shank.Lower.Post			L.Shank.Upper.Ant			L.Ankle.Lat			L.Ankle.Med			L.Heel.Upper			L.Heel.Med			L.Heel.Lat			L.Toe.Lat			L.Toe.Med			L.Toe.Tip			Cervical.Spine			Back			
		X1	Y1	Z1	X2	Y2	Z2	X3	Y3	Z3	X4	Y4	Z4	X5	Y5	Z5	X6	Y6	Z6	X7	Y7	Z7	X8	Y8	Z8	X9	Y9	Z9	X10	Y10	Z10	X11	Y11	Z11	X12	Y12	Z12	X13	Y13	Z13	X14	Y14	Z14	X15	Y15	Z15	X16	Y16	Z16	X17	Y17	Z17	X18	Y18	Z18	X19	Y19	Z19	X20	Y20	Z20	X21	Y21	Z21	X22	Y22	Z22	X23	Y23	Z23	X24	Y24	Z24	X25	Y25	Z25	X26	Y26	Z26	X27	Y27	Z27	X28	Y28	Z28	X29	Y29	Z29	X30	Y30	Z30	X31	Y31	Z31	X32	Y32	Z32	X33	Y33	Z33	X34	Y34	Z34	X35	Y35	Z35	X36	Y36	Z36	X37	Y37	Z37	X38	Y38	Z38	X39	Y39	Z39	X40	Y40	Z40	X41	Y41	Z41	X42	Y42	Z42	X43	Y43	Z43	X44	Y44	Z44	X45	Y45	Z45	X46	Y46	Z46	X47	Y47	Z47	X48	Y48	Z48	X49	Y49	Z49	X50	Y50	Z50	X51	Y51	Z51	

212	0.87917	-357.34	1239.6	341.25	-467.27	1477	521.04	-487.66	1506.1	187.27	-463.95	1793.8	371.47	-378.91	1026.3	456.31	-378.35	1027.8	223.86	-580.63	1049.3	377.29	-576.75	1051.8	284.16	-450.62	917.14	523.51	-459.81	918.52	154.41	-474.6	1095.5	499.11	-474.41	1107.1	191.47	-595.47	1009.9	330.65	-482.37	719.24	504.41	-412.54	617.27	465.62	-481.68	630.38	483.5	-404.65	709.5	489.38	-454.47	520.84	453.78	-485.06	530.16	329.67	-537.42	341.54	455.24	-481.56	276.02	429.5	-544.69	265.6	442.99	-474.51	352.57	442.47	-558.17	100.06	397.95	-532.58	116.8	320.89	-608.4	67.454	350.38	-598.23	40.614	323.26	-604.01	44.513	385.23	NaN	NaN	NaN	-410.68	43.062	313.18	-345.07	57.804	360.44	-381.47	717.27	164.37	-265.97	668.83	182.78	-330.4	642.68	179.58	-313.23	742.8	162.56	-285.23	558.35	195.16	-271.76	552.91	322.1	-407.64	432.64	191.27	-389.93	322.85	201.55	-444.7	369.35	202.66	-357.06	391.23	190.94	-510.41	210.22	206.11	-483.49	198.62	288.3	-569.2	209.77	257.34	-573.35	172.58	285.43	-578.12	184.98	222.49	-434.68	88.77	178.02	-410.44	77.244	289.03	-349.04	65.384	237.62	-542.34	1535.1	351.4	-590.23	1251.9	358.62
213	0.88333	-352.24	1239.4	341.42	-462.03	1476.9	521.14	-482.42	1506	187.36	-458.57	1793.7	371.53	-374.24	1025.9	456.5	-373.38	1027.7	224.06	-575.76	1049.2	377.09	-571.81	1051.7	283.96	-446.36	916.91	523.48	-454.59	918.66	154.27	-469.91	1095.2	499.09	-469.31	1107.1	191.49	-590.53	1009.7	330.35	-479.54	719.34	504.36	-410.42	616.89	465.54	-479.4	630.45	483.44	-401.84	709.08	489.48	-452.94	520.67	453.83	-483.31	530.14	329.66	-536.56	341.68	455.21	-480.87	276.06	429.6	-544.06	265.77	442.96	-473.62	352.54	442.5	-558	100.24	397.8	-532.53	116.92	320.77	-608.34	67.546	350.27	-598.17	40.663	323.2	-603.95	44.643	385.15	NaN	NaN	NaN	-410.68	42.986	313.13	-344.98	57.652	360.47	-375.09	717.76	164.31	-259.37	669.92	183.03	-323.65	643.45	179.64	-306.97	743.66	162.67	-278.05	559.15	195.5	-264.94	553.98	322.24	-398.2	430.58	191.36	-378.05	321.2	201.85	-433.82	366.5	202.81	-346.71	390.29	191.16	-496.04	205.84	206.32	-468.78	194.9	288.52	-554.94	203.79	257.52	-558.08	166.45	285.6	-563.11	178.68	222.7	-416.9	86.527	178.25	-392.4	75.649	289.25	-330.65	65.502	237.88	-537.02	1535	351.49	-585.07	1251.8	358.63
214	0.8875	-347.14	1239.1	341.61	-456.8	1476.7	521.23	-477.17	1505.7	187.44	-453.19	1793.4	371.58	-369.56	1025.6	456.67	-368.4	1027.6	224.25	-570.89	1049	376.9	-566.86	1051.6	283.76	-442.1	916.65	523.44	-449.37	918.75	154.14	-465.21	1094.9	499.07	-464.2	1107	191.5	-585.58	1009.5	330.06	-476.7	719.42	504.3	-408.27	616.5	465.46	-477.11	630.51	483.36	-399.01	708.65	489.56	-451.37	520.49	453.87	-481.54	530.11	329.64	-535.67	341.83	455.18	-480.17	276.1	429.69	-543.41	265.93	442.92	-472.7	352.5	442.51	-557.84	100.43	397.63	-532.45	117.05	320.63	-608.3	67.65	350.14	-598.1	40.713	323.15	-603.9	44.774	385.06	NaN	NaN	NaN	-410.66	42.912	313.07	-344.9	57.5	360.5	-368.81	718.2	164.28	-252.89	670.88	183.27	-317.03	644.14	179.7	-300.8	744.41	162.78	-271	559.85	195.82	-258.27	554.92	322.36	-388.78	428.41	191.42	-366.15	319.5	202.15	-422.93	363.55	202.95	-336.39	389.27	191.38	-481.56	201.41	206.53	-453.94	191.15	288.75	-540.48	197.77	257.69	-542.61	160.32	285.79	-547.9	172.34	222.92	-399.06	84.29	178.53	-374.32	74.127	289.54	-312.26	65.668	238.2	-531.69	1534.8	351.57	-579.92	1251.7	358.65
215	0.89167	-342.03	1238.8	341.79	-451.57	1476.5	521.31	-471.93	1505.5	187.52	-447.81	1793.2	371.62	-364.88	1025.2	456.83	-363.42	1027.4	224.41	-566.02	1048.8	376.73	-561.92	1051.4	283.57	-437.84	916.36	523.4	-444.15	918.79	154.02	-460.51	1094.6	499.05	-459.09	1106.9	191.51	-580.63	1009.3	329.77	-473.83	719.48	504.23	-406.1	616.1	465.37	-474.78	630.55	483.27	-396.18	708.2	489.63	-449.76	520.29	453.9	-479.75	530.06	329.6	-534.77	341.97	455.14	-479.46	276.13	429.76	-542.74	266.09	442.87	-471.77	352.45	442.51	-557.67	100.62	397.46	-532.33	117.17	320.5	-608.27	67.767	350	-598	40.764	323.09	-603.85	44.908	384.96	NaN	NaN	NaN	-410.63	42.842	313.01	-344.8	57.346	360.52	-362.63	718.56	164.28	-246.53	671.73	183.51	-310.55	644.73	179.78	-294.72	745.07	162.9	-264.09	560.45	196.13	-251.74	555.75	322.47	-379.36	426.12	191.47	-354.25	317.76	202.45	-412.01	360.51	203.08	-326.09	388.18	191.59	-466.94	196.95	206.74	-438.98	187.39	288.98	-525.83	191.72	257.87	-526.93	154.22	286.01	-532.5	165.99	223.15	-381.17	82.075	178.87	-356.19	72.688	289.9	-293.89	65.893	238.59	-526.35	1534.6	351.65	-574.77	1251.6	358.66
216	0.89583	-336.91	1238.5	341.97	-446.33	1476.3	521.4	-466.69	1505.2	187.59	-442.43	1792.9	371.65	-360.2	1024.7	456.98	-358.42	1027.2	224.56	-561.15	1048.6	376.55	-556.97	1051.2	283.38	-433.58	916.04	523.36	-438.92	918.79	153.92	-455.81	1094.2	499.03	-453.97	1106.7	191.51	-575.67	1009	329.49	-470.94	719.52	504.15	-403.9	615.69	465.27	-472.43	630.58	483.16	-393.33	707.73	489.67	-448.12	520.08	453.92	-477.93	530.01	329.56	-533.86	342.11	455.09	-478.74	276.15	429.81	-542.06	266.26	442.81	-470.82	352.4	442.51	-557.5	100.81	397.27	-532.17	117.29	320.35	-608.24	67.894	349.85	-597.88	40.815	323.04	-603.79	45.043	384.85	NaN	NaN	NaN	-410.57	42.776	312.96	-344.71	57.192	360.56	-356.56	718.84	164.3	-240.3	672.46	183.74	-304.2	645.23	179.86	-288.74	745.62	163.02	-257.32	560.94	196.41	-245.34	556.44	322.58	-369.96	423.72	191.51	-342.34	315.97	202.74	-401.06	357.38	203.2	-315.82	387.03	191.8	-452.2	192.47	206.94	-423.91	183.64	289.23	-510.99	185.66	258.04	-511.06	148.15	286.25	-516.91	159.64	223.4	-363.22	79.898	179.25	-338.03	71.344	290.3	-275.53	66.188	239.03	-521.01	1534.3	351.72	-569.62	1251.4	358.68
217	0.9	-331.78	1238.1	342.15	-441.09	1476	521.48	-461.45	1504.8	187.67	-437.05	1792.6	371.66	-355.51	1024.2	457.11	-353.42	1026.9	224.69	-556.28	1048.3	376.39	-552.01	1051	283.21	-429.32	915.68	523.32	-433.69	918.73	153.82	-451.11	1093.8	499.01	-448.84	1106.5	191.52	-570.72	1008.8	329.21	-468.03	719.53	504.06	-401.65	615.26	465.17	-470.05	630.59	483.05	-390.46	707.25	489.7	-446.45	519.86	453.93	-476.09	529.94	329.52	-532.93	342.24	455.02	-478.03	276.16	429.84	-541.36	266.42	442.74	-469.85	352.34	442.49	-557.34	101	397.07	-531.97	117.4	320.2	-608.23	68.031	349.68	-597.74	40.866	322.98	-603.73	45.18	384.73	NaN	NaN	NaN	-410.49	42.714	312.9	-344.61	57.036	360.59	-350.59	719.05	164.34	-234.2	673.05	183.95	-297.98	645.62	179.96	-282.86	746.06	163.15	-250.69	561.32	196.68	-239.08	557.01	322.68	-360.57	421.23	191.53	-330.42	314.16	203.03	-390.09	354.18	203.32	-305.57	385.81	192	-437.34	187.99	207.15	-408.73	179.9	289.48	-495.97	179.62	258.22	-494.99	142.14	286.51	-501.13	153.32	223.68	-345.23	77.778	179.67	-319.84	70.105	290.76	-257.19	66.566	239.5	-515.66	1534	351.79	-564.49	1251.1	358.69
218	0.90417	-326.65	1237.6	342.33	-435.84	1475.7	521.56	-456.21	1504.4	187.74	-431.68	1792.2	371.66	-350.81	1023.7	457.22	-348.42	1026.6	224.81	-551.4	1048	376.22	-547.06	1050.7	283.03	-425.05	915.3	523.28	-428.44	918.62	153.74	-446.4	1093.3	498.99	-443.72	1106.3	191.51	-565.76	1008.4	328.94	-465.08	719.53	503.96	-399.38	614.83	465.06	-467.64	630.58	482.93	-387.58	706.75	489.7	-444.74	519.62	453.93	-474.21	529.85	329.46	-531.99	342.38	454.94	-477.32	276.15	429.84	-540.66	266.58	442.66	-468.88	352.27	442.46	-557.17	101.2	396.86	-531.74	117.52	320.04	-608.22	68.176	349.5	-597.58	40.916	322.91	-603.67	45.319	384.59	NaN	NaN	NaN	-410.38	42.657	312.86	-344.5	56.879	360.63	-344.74	719.17	164.41	-228.22	673.52	184.16	-291.91	645.91	180.05	-277.09	746.39	163.28	-244.21	561.59	196.93	-232.96	557.44	322.78	-351.2	418.64	191.55	-318.51	312.33	203.33	-379.1	350.91	203.44	-295.36	384.54	192.21	-422.36	183.53	207.36	-393.46	176.2	289.74	-480.76	173.59	258.41	-478.75	136.19	286.8	-485.18	147.04	223.96	-327.2	75.733	180.12	-301.64	68.982	291.25	-238.89	67.039	240.01	-510.31	1533.7	351.85	-559.35	1250.8	358.7
219	0.90833	-321.51	1237.1	342.51	-430.58	1475.3	521.63	-450.96	1503.9	187.81	-426.3	1791.8	371.65	-346.11	1023.1	457.33	-343.4	1026.3	224.91	-546.52	1047.7	376.06	-542.09	1050.4	282.86	-420.77	914.89	523.24	-423.2	918.46	153.66	-441.69	1092.8	498.97	-438.58	1106	191.51	-560.8	1008.1	328.68	-462.11	719.51	503.86	-397.06	614.38	464.96	-465.2	630.55	482.8	-384.68	706.24	489.69	-443.01	519.37	453.93	-472.3	529.76	329.39	-531.04	342.52	454.85	-476.6	276.12	429.8	-539.94	266.75	442.57	-467.88	352.19	442.43	-557	101.39	396.63	-531.48	117.64	319.88	-608.21	68.324	349.31	-597.4	40.965	322.83	-603.61	45.459	384.43	NaN	NaN	NaN	-410.25	42.604	312.81	-344.39	56.721	360.67	-339.01	719.21	164.49	-222.38	673.85	184.35	-285.99	646.09	180.15	-271.42	746.61	163.41	-237.86	561.75	197.16	-226.98	557.74	322.87	-341.84	415.98	191.57	-306.6	310.49	203.62	-368.09	347.6	203.55	-285.19	383.22	192.41	-407.26	179.11	207.58	-378.09	172.56	290.01	-465.39	167.61	258.61	-462.32	130.33	287.12	-469.05	140.83	224.27	-309.14	73.782	180.61	-283.42	67.988	291.78	-220.63	67.623	240.55	-504.95	1533.3	351.91	-554.22	1250.5	358.71
220	0.9125	-316.37	1236.6	342.68	-425.32	1474.9	521.7	-445.7	1503.4	187.87	-420.93	1791.3	371.63	-341.39	1022.5	457.42	-338.38	1025.9	225	-541.62	1047.3	375.9	-537.12	1050.1	282.69	-416.48	914.45	523.19	-417.96	918.24	153.58	-436.97	1092.3	498.94	-433.45	1105.7	191.5	-555.84	1007.7	328.43	-459.1	719.46	503.76	-394.7	613.92	464.86	-462.72	630.51	482.66	-381.76	705.72	489.65	-441.24	519.11	453.93	-470.36	529.66	329.32	-530.08	342.65	454.75	-475.89	276.08	429.74	-539.23	266.92	442.47	-466.88	352.1	442.39	-556.83	101.59	396.4	-531.21	117.75	319.71	-608.2	68.475	349.1	-597.22	41.014	322.74	-603.55	45.601	384.27	NaN	NaN	NaN	-410.09	42.557	312.77	-344.28	56.561	360.71	-333.39	719.15	164.59	-216.68	674.04	184.54	-280.21	646.15	180.25	-265.86	746.7	163.54	-231.66	561.79	197.38	-221.12	557.91	322.95	-332.49	413.23	191.59	-294.69	308.66	203.92	-357.06	344.24	203.66	-275.06	381.87	192.62	-392.05	174.74	207.81	-362.64	168.98	290.29	-449.85	161.68	258.82	-445.74	124.56	287.46	-452.76	134.7	224.6	-291.07	71.944	181.11	-265.19	67.136	292.33	-202.42	68.33	241.11	-499.58	1532.9	351.96	-549.09	1250.2	358.73
